<svg width="9515" height="1800" viewBox="0 0 9515 1800" fill="none" xmlns="http://www.w3.org/2000/svg">
<rect width="1800" height="1800" rx="50" fill="#000957"/>
<rect x="200" y="320" width="1000" height="200" fill="#00FF9C"/>
<rect x="200" y="1280" width="1000" height="200" fill="#00FF9C"/>
<rect x="400" y="560" width="1000" height="200" fill="#00FF9C"/>
<rect x="400" y="1040" width="1000" height="200" fill="#00FF9C"/>
<rect x="600" y="800" width="1000" height="200" fill="#00FF9C"/>
<path d="M2205.92 1264V536.96H2447.58C2563.64 536.96 2652.73 568.704 2714.85 632.192C2777.65 694.997 2809.06 784.768 2809.06 901.504C2809.06 1017.56 2778.34 1106.99 2716.9 1169.79C2655.46 1232.6 2567.73 1264 2453.73 1264H2205.92ZM2339.04 1148.29H2447.58C2523.36 1148.29 2579.68 1127.81 2616.54 1086.85C2653.41 1045.89 2671.84 984.107 2671.84 901.504C2671.84 817.536 2653.41 755.072 2616.54 714.112C2579.68 673.152 2523.36 652.672 2447.58 652.672H2339.04V1148.29ZM3170.22 1276.29C3115.61 1276.29 3068.17 1264.68 3027.89 1241.47C2987.61 1217.58 2956.55 1184.13 2934.7 1141.12C2912.86 1098.11 2901.94 1047.94 2901.94 990.592C2901.94 933.248 2912.86 883.413 2934.7 841.088C2956.55 798.08 2987.27 764.629 3026.86 740.736C3067.14 716.843 3113.9 704.896 3167.15 704.896C3219.03 704.896 3264.43 716.501 3303.34 739.712C3342.94 762.923 3373.32 796.373 3394.48 840.064C3415.64 883.755 3426.22 936.32 3426.22 997.76V1027.46H3038.13C3040.86 1075.24 3053.83 1111.42 3077.04 1136C3100.93 1159.89 3132.34 1171.84 3171.25 1171.84C3200.6 1171.84 3224.84 1165.35 3243.95 1152.38C3263.75 1138.73 3277.4 1119.96 3284.91 1096.06L3419.06 1104.26C3404.04 1157.5 3374.34 1199.49 3329.97 1230.21C3286.28 1260.93 3233.03 1276.29 3170.22 1276.29ZM3038.13 939.392H3291.06C3288.33 895.019 3275.7 862.251 3253.17 841.088C3230.64 819.243 3201.97 808.32 3167.15 808.32C3132.34 808.32 3103.32 819.584 3080.11 842.112C3057.58 864.64 3043.59 897.067 3038.13 939.392ZM3528.68 1417.6V717.184H3654.63L3657.7 833.92L3644.39 827.776C3658.05 787.499 3680.23 757.12 3710.95 736.64C3742.35 715.477 3778.88 704.896 3820.52 704.896C3872.4 704.896 3915.41 717.867 3949.54 743.808C3984.36 769.749 4010.3 804.224 4027.37 847.232C4044.43 890.24 4052.97 938.027 4052.97 990.592C4052.97 1043.16 4044.09 1090.94 4026.34 1133.95C4009.28 1176.96 3983.34 1211.43 3948.52 1237.38C3914.39 1263.32 3871.38 1276.29 3819.5 1276.29C3792.19 1276.29 3766.59 1271.51 3742.7 1261.95C3719.49 1252.39 3699.35 1238.74 3682.28 1220.99C3665.9 1203.24 3654.29 1182.42 3647.46 1158.53L3659.75 1148.29V1417.6H3528.68ZM3788.78 1169.79C3828.37 1169.79 3859.43 1154.09 3881.96 1122.69C3905.17 1090.6 3916.78 1046.57 3916.78 990.592C3916.78 934.613 3905.17 890.923 3881.96 859.52C3859.43 827.435 3828.37 811.392 3788.78 811.392C3762.15 811.392 3739.28 818.219 3720.17 831.872C3701.05 844.843 3686.03 864.64 3675.11 891.264C3664.87 917.888 3659.75 950.997 3659.75 990.592C3659.75 1030.19 3664.87 1063.3 3675.11 1089.92C3685.35 1116.54 3700.03 1136.68 3719.14 1150.34C3738.94 1163.31 3762.15 1169.79 3788.78 1169.79ZM4354.82 1264C4300.2 1264 4259.93 1251.37 4233.98 1226.11C4208.73 1200.85 4196.1 1161.26 4196.1 1107.33V589.184H4327.17V1095.04C4327.17 1120.3 4332.63 1138.05 4343.55 1148.29C4354.47 1157.85 4371.54 1162.62 4394.75 1162.62H4471.55V1264H4354.82ZM4110.08 818.56V717.184H4471.55V818.56H4110.08ZM4567.68 1264V536.96H4698.75V842.112H4682.37C4687.83 810.709 4698.75 785.109 4715.14 765.312C4731.52 744.832 4751.66 729.813 4775.55 720.256C4799.45 710.016 4825.73 704.896 4854.4 704.896C4894.68 704.896 4928.47 713.771 4955.78 731.52C4983.77 748.587 5004.59 772.821 5018.24 804.224C5032.58 835.627 5039.74 871.808 5039.74 912.768V1264H4908.67V944.512C4908.67 900.139 4901.16 867.029 4886.14 845.184C4871.13 822.656 4847.57 811.392 4815.49 811.392C4779.99 811.392 4751.66 822.997 4730.5 846.208C4709.33 869.419 4698.75 903.211 4698.75 947.584V1264H4567.68ZM5391.89 1276.29C5337.96 1276.29 5292.56 1268.44 5255.7 1252.74C5219.51 1237.03 5191.53 1215.19 5171.73 1187.2C5151.93 1159.21 5140.67 1127.47 5137.94 1091.97L5272.08 1085.82C5276.86 1114.5 5288.81 1136.68 5307.92 1152.38C5327.03 1168.09 5355.37 1175.94 5392.91 1175.94C5423.63 1175.94 5447.53 1171.16 5464.59 1161.6C5482.34 1151.36 5491.22 1135.66 5491.22 1114.5C5491.22 1102.21 5488.14 1091.97 5482 1083.78C5475.86 1075.58 5464.25 1068.42 5447.18 1062.27C5430.12 1056.13 5404.86 1049.98 5371.41 1043.84C5315.43 1034.28 5271.4 1022.68 5239.31 1009.02C5207.23 994.688 5184.36 976.939 5170.7 955.776C5157.73 934.613 5151.25 908.331 5151.25 876.928C5151.25 825.728 5170.7 784.427 5209.62 753.024C5249.21 720.939 5306.9 704.896 5382.67 704.896C5431.82 704.896 5473.13 713.088 5506.58 729.472C5540.03 745.173 5565.97 767.019 5584.4 795.008C5603.51 822.315 5615.46 853.717 5620.24 889.216L5488.14 895.36C5484.73 876.928 5478.59 860.885 5469.71 847.232C5460.84 833.579 5448.89 823.339 5433.87 816.512C5418.85 809.003 5401.1 805.248 5380.62 805.248C5349.9 805.248 5326.69 811.392 5310.99 823.68C5295.29 835.968 5287.44 852.352 5287.44 872.832C5287.44 887.168 5290.85 899.115 5297.68 908.672C5305.19 918.229 5317.14 926.08 5333.52 932.224C5349.9 937.685 5371.75 942.805 5399.06 947.584C5456.4 956.459 5501.46 968.064 5534.22 982.4C5567.67 996.053 5591.23 1013.8 5604.88 1035.65C5619.22 1056.81 5626.38 1082.41 5626.38 1112.45C5626.38 1147.26 5616.49 1176.96 5596.69 1201.54C5577.57 1226.11 5550.27 1244.89 5514.77 1257.86C5479.95 1270.14 5438.99 1276.29 5391.89 1276.29ZM5928.46 1264L6190.6 536.96H6353.42L6615.56 1264H6476.3L6415.88 1091.97H6128.14L6067.72 1264H5928.46ZM6167.05 978.304H6376.97L6272.52 671.104L6167.05 978.304ZM6692.92 1264V536.96H6826.04V1264H6692.92ZM7420.34 1276.29C7373.91 1276.29 7333.3 1264.68 7298.48 1241.47C7264.35 1218.26 7238.06 1185.49 7219.63 1143.17C7201.88 1100.16 7193.01 1049.64 7193.01 991.616C7193.01 933.589 7202.22 883.413 7220.66 841.088C7239.09 798.08 7265.37 764.971 7299.5 741.76C7333.64 718.549 7373.91 706.944 7420.34 706.944C7457.88 706.944 7491.33 714.795 7520.69 730.496C7550.04 746.197 7572.23 768.043 7587.25 796.032V536.96H7695.79V1264H7594.42L7591.34 1182.08C7576.33 1211.43 7553.46 1234.65 7522.74 1251.71C7492.7 1268.1 7458.57 1276.29 7420.34 1276.29ZM7449.01 1182.08C7478.36 1182.08 7503.28 1174.57 7523.76 1159.55C7544.24 1144.53 7559.94 1122.69 7570.86 1094.02C7581.79 1065.34 7587.25 1031.21 7587.25 991.616C7587.25 950.656 7581.79 916.181 7570.86 888.192C7559.94 859.52 7544.24 838.016 7523.76 823.68C7503.28 808.661 7478.36 801.152 7449.01 801.152C7405.32 801.152 7370.5 818.219 7344.56 852.352C7318.62 885.803 7305.65 932.224 7305.65 991.616C7305.65 1050.33 7318.62 1096.75 7344.56 1130.88C7370.5 1165.01 7405.32 1182.08 7449.01 1182.08ZM8064.06 1276.29C8012.17 1276.29 7966.78 1264.68 7927.86 1241.47C7888.95 1218.26 7858.91 1185.15 7837.75 1142.14C7816.59 1099.14 7806.01 1048.96 7806.01 991.616C7806.01 933.589 7816.59 883.413 7837.75 841.088C7858.91 798.763 7888.95 765.995 7927.86 742.784C7966.78 718.891 8012.17 706.944 8064.06 706.944C8115.94 706.944 8161.34 718.891 8200.25 742.784C8239.16 765.995 8269.2 798.763 8290.36 841.088C8311.52 883.413 8322.1 933.589 8322.1 991.616C8322.1 1048.96 8311.52 1099.14 8290.36 1142.14C8269.2 1185.15 8239.16 1218.26 8200.25 1241.47C8161.34 1264.68 8115.94 1276.29 8064.06 1276.29ZM8064.06 1182.08C8110.48 1182.08 8146.32 1165.35 8171.58 1131.9C8196.83 1097.77 8209.46 1051.01 8209.46 991.616C8209.46 932.224 8196.83 885.803 8171.58 852.352C8146.32 818.219 8110.48 801.152 8064.06 801.152C8018.32 801.152 7982.48 818.219 7956.54 852.352C7931.28 885.803 7918.65 932.224 7918.65 991.616C7918.65 1051.01 7931.28 1097.77 7956.54 1131.9C7982.48 1165.35 8018.32 1182.08 8064.06 1182.08ZM8656.06 1276.29C8604.17 1276.29 8558.78 1264.68 8519.86 1241.47C8480.95 1218.26 8450.91 1185.15 8429.75 1142.14C8408.59 1099.14 8398.01 1048.96 8398.01 991.616C8398.01 934.272 8408.59 884.437 8429.75 842.112C8450.91 799.104 8480.95 765.995 8519.86 742.784C8558.78 718.891 8604.17 706.944 8656.06 706.944C8700.43 706.944 8739.68 714.795 8773.82 730.496C8808.63 745.515 8836.62 767.701 8857.78 797.056C8879.63 826.411 8893.62 862.251 8899.77 904.576L8786.1 910.72C8780.64 875.221 8766.31 848.256 8743.1 829.824C8719.89 810.709 8690.87 801.152 8656.06 801.152C8610.32 801.152 8574.48 818.219 8548.54 852.352C8523.28 885.803 8510.65 932.224 8510.65 991.616C8510.65 1051.01 8523.28 1097.77 8548.54 1131.9C8574.48 1165.35 8610.32 1182.08 8656.06 1182.08C8690.87 1182.08 8719.89 1172.52 8743.1 1153.41C8766.31 1133.61 8780.64 1103.91 8786.1 1064.32L8899.77 1070.46C8893.62 1112.11 8879.63 1148.29 8857.78 1179.01C8836.62 1209.73 8808.63 1233.62 8773.82 1250.69C8739.68 1267.75 8700.43 1276.29 8656.06 1276.29ZM9208.72 1276.29C9157.52 1276.29 9114.17 1268.44 9078.67 1252.74C9043.86 1237.03 9016.89 1215.53 8997.78 1188.22C8978.66 1160.23 8967.74 1128.15 8965.01 1091.97L9076.62 1086.85C9082.09 1116.89 9095.06 1140.78 9115.54 1158.53C9136.02 1176.28 9167.08 1185.15 9208.72 1185.15C9242.85 1185.15 9269.82 1179.69 9289.62 1168.77C9309.41 1157.85 9319.31 1140.44 9319.31 1116.54C9319.31 1103.57 9315.9 1092.65 9309.07 1083.78C9302.93 1074.22 9290.64 1066.37 9272.21 1060.22C9253.78 1053.4 9226.47 1046.91 9190.29 1040.77C9136.36 1030.53 9094.03 1018.58 9063.31 1004.93C9032.59 991.275 9010.75 973.867 8997.78 952.704C8984.81 931.541 8978.32 905.941 8978.32 875.904C8978.32 826.069 8996.75 785.451 9033.62 754.048C9071.16 722.645 9125.09 706.944 9195.41 706.944C9242.51 706.944 9282.11 715.136 9314.19 731.52C9346.28 747.221 9371.19 768.725 9388.94 796.032C9407.38 822.656 9418.98 852.693 9423.76 886.144L9312.14 892.288C9308.73 873.173 9301.9 856.789 9291.66 843.136C9282.11 828.8 9269.14 817.877 9252.75 810.368C9236.37 802.176 9216.91 798.08 9194.38 798.08C9159.57 798.08 9133.63 804.907 9116.56 818.56C9099.49 832.213 9090.96 849.963 9090.96 871.808C9090.96 888.192 9094.71 901.504 9102.22 911.744C9110.42 921.984 9123.39 930.517 9141.14 937.344C9158.89 943.488 9182.44 948.949 9211.79 953.728C9268.45 963.285 9312.83 975.232 9344.91 989.568C9377 1003.22 9399.53 1020.29 9412.5 1040.77C9425.47 1061.25 9431.95 1086.17 9431.95 1115.52C9431.95 1149.65 9422.39 1178.67 9403.28 1202.56C9384.17 1226.45 9357.88 1244.89 9324.43 1257.86C9290.98 1270.14 9252.41 1276.29 9208.72 1276.29Z" fill="#002D3C"/>
<path d="M7150 1392H9474.96V1443.2H7150V1392Z" fill="#002D3C"/>
</svg>
